PathFileType	4	(X/Y/Z)	48_2_3_p0_0-252_filt_butterworth.trc
DataRate	CameraRate	NumFrames	NumMarkers	Units	OrigDataRate	OrigDataStartFrame	OrigNumFrames
59.0	59.0	6	27	m	59.0	157	252
Frame#	Time	RHip			RKnee			RAnkle			RBigToe			RSmallToe			RHeel			LHip			LKnee			LAnkle			LBigToe			LSmallToe			LHeel			Neck			Head			Nose			RShoulder			RElbow			RWrist			RThumb			RIndex			RPinky			LShoulder			LElbow			LWrist			LThumb			LIndex			LPinky			
		X1	Y1	Z1	X2	Y2	Z2	X3	Y3	Z3	X4	Y4	Z4	X5	Y5	Z5	X6	Y6	Z6	X7	Y7	Z7	X8	Y8	Z8	X9	Y9	Z9	X10	Y10	Z10	X11	Y11	Z11	X12	Y12	Z12	X13	Y13	Z13	X14	Y14	Z14	X15	Y15	Z15	X16	Y16	Z16	X17	Y17	Z17	X18	Y18	Z18	X19	Y19	Z19	X20	Y20	Z20	X21	Y21	Z21	X22	Y22	Z22	X23	Y23	Z23	X24	Y24	Z24	X25	Y25	Z25	X26	Y26	Z26	X27	Y27	Z27	
157	2.6610169491525424	0.21037085660556126	0.785728471505836	0.6526658654738784	0.13679836831523454	0.39062342087495516	0.5961604275631711	0.1303725957396819	0.017119819828279814	0.615677115532865	0.0923509512453489	-0.009503139569704736	0.48622764992592454	0.16608889857186537	0.0013752334871185434	0.47662828731179585	0.12881257233207952	-0.10313499615943536	0.7340688444813952	-0.0021326955184492727	0.7958663507541943	0.7281700666184618	-0.038122924789531394	0.3742509784596405	0.6861174500199922	-0.03319772475871213	-0.02026395233378739	0.6925528241331596	-0.058269897873433465	0.01866303448496623	0.49810869125858737	-0.1028921452657757	-0.009988019691515054	0.5661752744344701	-0.007717771436896149	-0.07726847042897446	0.7322001535952636	0.048883200005833585	1.3036030953393847	0.6114774156560228	-0.03350592706939141	1.5567593904247843	0.5404350820872872	-0.0786770315352006	1.430772055067297	0.4839723629824288	0.22319473139903742	1.253768324086635	0.5800218130377612	0.4064529965352899	1.0685322314819687	0.6690092360049729	0.31932596173072814	0.8850133727987055	0.6108010244971329	0.22610184812510548	0.8057618662555217	0.5913242789224626	0.24035312582892787	0.7911717535198779	0.5998660233532481	0.296051724046708	0.7707821006597996	0.6221025404826617	-0.0604002487681522	1.2596451101260047	0.7051419467730076	-0.27281514993680833	1.2669647411662708	0.7703730015112418	-0.529408319494497	1.2915626236702584	0.7145280061371815	-0.6276656242166951	1.270566307862353	0.6815369371037474	-0.6509942054125195	1.3003704417890933	0.7165854824307375	-0.6326557456934502	1.2934148435035413	0.7714367961307749	
158	2.6779661016949152	0.21021924671859157	0.7871877286070292	0.6515002849023296	0.13699799842789612	0.3909665160859103	0.5962176377751988	0.1304655749469107	0.017509127820613715	0.6157039915699856	0.09215525804795048	-0.010397907113554886	0.4875647305576184	0.16671243131524155	0.001000080755422475	0.47711842272726596	0.1290704639476753	-0.1032039809158862	0.7343538551129429	-0.0025816963807710125	0.7963167578830113	0.7285396941679197	-0.03793538385431306	0.3748066416611949	0.6861613490181153	-0.03274056224643704	-0.020716728109262325	0.6927055540956881	-0.057517454338525176	0.01684253640567926	0.5001708823190766	-0.10278104746977951	-0.00996187236424921	0.5661084975147805	-0.00798419946182837	-0.07707405524903949	0.7314194836188938	0.04894108441423093	1.3053965333209778	0.611591089399347	-0.03354451218601552	1.55677297749243	0.5427424732706907	-0.07813664205258379	1.4300869612561613	0.4859919021524545	0.2227606551834718	1.253859670242211	0.5814628617834989	0.40608898079488376	1.0690036265270288	0.6669166069887785	0.3203410777159291	0.8831835252388809	0.6094469570752901	0.2260515269323955	0.8050483619198952	0.5909722136351614	0.24052343665272885	0.7906088120118004	0.5969469263338484	0.2949149210603559	0.7705738096166851	0.6180616889613312	-0.058768109078124006	1.260859788127103	0.7051948068955749	-0.27478050885637634	1.2646256760579764	0.7773703204457392	-0.5291190157482379	1.2853386980575545	0.7180376317722048	-0.6245987647278025	1.262288328834277	0.6868838413965402	-0.649724545646597	1.2952788069138645	0.7128709796046577	-0.6344809392983204	1.285427437294156	0.7867145403625989	
159	2.694915254237288	0.21005061220796148	0.7886465217998166	0.6505938061843735	0.13724692763876487	0.391284603455642	0.5962697233845802	0.13056552301541993	0.01789828997916712	0.6157195915638273	0.09185100575957149	-0.009796407787131325	0.4872948927617632	0.1670485243216922	0.0007208410976684704	0.4775155832285646	0.12940716221212395	-0.10372719832996576	0.7347035422140675	-0.0030400318226625157	0.7969994932270329	0.7285591211936576	-0.03782001304819046	0.37545503439275263	0.6861477679291159	-0.032255304631216855	-0.02141834188100497	0.6928647445637662	-0.057042915767505704	0.015807720607978554	0.501225669902594	-0.10284415468379553	-0.009777637286369378	0.5660691394454661	-0.008330748246841366	-0.07703983318186522	0.7304781607684817	0.04915277289452006	1.307050888990934	0.6111222615304217	-0.032752437106223546	1.5571615030902486	0.5455804900747827	-0.07731880553631323	1.4297470974999384	0.48772968789550764	0.2224850303177269	1.2539928487587066	0.5830196577368068	0.406100002433853	1.068328231354985	0.6663160111607407	0.321441621281656	0.8811684590477655	0.6092104964337469	0.22649543982111614	0.8041445819777748	0.5906083372297085	0.24158314377425144	0.7892052209781716	0.5939692225377022	0.29533744205244383	0.7690817663722637	0.617127405029094	-0.05740734303753119	1.2617550836607228	0.7057619873021088	-0.2769516553195144	1.2604391338382268	0.7838308062680366	-0.528739680890656	1.2765962731055076	0.7224818553999872	-0.6196374948571207	1.2519189442255396	0.6911261011336649	-0.647208148877098	1.2881459258302301	0.706197808716151	-0.6344837041763902	1.2750767565447272	0.7952847742123913	
160	2.711864406779661	0.2098656807494853	0.7901308916336556	0.6499194270720531	0.13749755284640447	0.3916328999136427	0.5963347947473607	0.13067037318022812	0.018289353041521794	0.6157309098133636	0.09113654089638415	-0.007537660522946785	0.48527755469191197	0.1667246913379411	0.0009095461678933076	0.4773754709985991	0.12983667016973707	-0.10459696609084237	0.735174177294529	-0.003533831530481083	0.7978118445507724	0.7283824567695859	-0.03779038614882154	0.37621200316928705	0.6860837441158133	-0.03182412276743595	-0.02231058695025656	0.692995500385017	-0.05697648652465424	0.01626420267401306	0.5008440096389845	-0.10306703033108361	-0.009265799832719385	0.5660582706455412	-0.00868361483642161	-0.07704753974110812	0.7294649194194178	0.04934875258393048	1.3082827824480165	0.610767176029926	-0.031243445304475585	1.5582565109714406	0.5486831229944474	-0.07618459969711813	1.4298476529106792	0.4893150698583799	0.22226851248890417	1.254189652985907	0.5851159060704495	0.4062464709281771	1.066655458168102	0.6664674929588501	0.32251507188292683	0.8789912799567388	0.6096600763489215	0.22743674000713865	0.8022989544670642	0.590455667369644	0.24332144958004395	0.7868218210210136	0.591210549091635	0.29758441811321745	0.7666518816358053	0.6182857329549615	-0.05659085679870718	1.2621582655188912	0.7071134129059051	-0.27884376334871175	1.254006837754802	0.7897014044822638	-0.5273175496467524	1.2654857702493285	0.7278562346647667	-0.6125053373914251	1.2396863783713739	0.6929014954021091	-0.6432258844867993	1.278061285078389	0.6984238383334351	-0.6324750170145277	1.2627162194236792	0.7969616638599235	
161	2.7288135593220337	0.2096584348310869	0.7916295615502928	0.6495720729342689	0.13766170678405693	0.3920252000867762	0.5963901234422679	0.13077702589149934	0.01871709886021372	0.6157476594626111	0.08985115821525969	-0.003969283022272105	0.4819240294701916	0.16565016014905526	0.0018116667842862505	0.4763699021595502	0.1303833104349448	-0.1057655127679818	0.7358559668105944	-0.004062414242536294	0.7987342999801778	0.7280710135212873	-0.037836876833177345	0.377079180618804	0.6859741590379744	-0.031480315938626144	-0.023296453800474085	0.693083460033168	-0.05731774882026093	0.018557548966604748	0.4987834009831885	-0.10338717619241183	-0.008389439241663021	0.5660750359026401	-0.00900846609810833	-0.07697599382568956	0.7284537696987727	0.049414724922387104	1.3090540819582817	0.6107562336176191	-0.029145900299713926	1.560429050859511	0.5507390743845006	-0.0745035277318393	1.430333990642708	0.4914474085114655	0.22206829470891726	1.2543365339319685	0.5876931957555681	0.4062985880865282	1.064323698077262	0.666662100661669	0.3236199746211149	0.876676397504405	0.6101880505497042	0.22893189631102162	0.7989108456188276	0.5909045199046937	0.24545768439165477	0.7835220828850872	0.5890029518317735	0.30128960685236883	0.7635199752136943	0.6201000194010535	-0.05644139564986347	1.2620833243771237	0.7093274937767001	-0.28006690203651985	1.245160116903392	0.7953955368853152	-0.5239597171113803	1.252269061728639	0.7332244564295679	-0.6032438616070996	1.2261664844795868	0.691775089810559	-0.6372661045106933	1.2645969265970443	0.6910949605489678	-0.6283701736980435	1.248690362326878	0.7928351245786944	
162	2.7457627118644066	0.209426304489142	0.7931077790957779	0.64975285225327	0.13767841032494105	0.3924631471205699	0.5963697743846839	0.13088449199216456	0.01922579587552764	0.6157767889359665	0.08806227363261962	0.0003165416363398038	0.4778341592122836	0.16396014610363305	0.0034047207476559926	0.4744860082231471	0.1310275809674835	-0.1071702643914067	0.7367235066551148	-0.004614237350328258	0.7998728277115952	0.7276082962164094	-0.03793810121581044	0.3780358455996149	0.6858349237238843	-0.0312446028171968	-0.024280045968305963	0.6931388853521244	-0.05796313207387874	0.022569375263921054	0.49528742754253696	-0.1037425563962995	-0.007253628566962433	0.5661144122802652	-0.009314652784895183	-0.07675713948379718	0.727471321068414	0.049288524069723116	1.3095744703905727	0.6109881979207721	-0.026579566538252344	1.5639104153485823	0.5500099334855658	-0.07198429055322694	1.4310697905683172	0.49473776006038567	0.22195163642313018	1.2542834126950302	0.5900899086664756	0.40613270045060307	1.0616058403587365	0.6669509302016996	0.32478449879306026	0.8741772500101495	0.6104497963824654	0.2309612677145672	0.7939176628925638	0.592202047183833	0.2477999833037818	0.7795331193967414	0.5876276614649525	0.3057355764138266	0.7598170472631071	0.621579777368579	-0.05688561063685883	1.2617557353680284	0.7124313537641125	-0.28029552226392146	1.234250971431384	0.8010659279371543	-0.5180189071196918	1.2373582723670755	0.7370504607382142	-0.591896740613419	1.2115513048798083	0.6878270269319461	-0.6288666512212641	1.2479565888314732	0.685203507361677	-0.6218009895775035	1.2331217512990071	0.7841580753824398	
